<svg width="24" height="24" viewBox="0 0 24 24" fill="none" xmlns="http://www.w3.org/2000/svg">
<path d="M19.8521 3.88125C17.6865 1.71094 14.799 0.515625 11.7334 0.515625C8.66777 0.515625 5.78027 1.71094 3.61465 3.88125C1.44902 6.05156 0.249023 8.93437 0.249023 12C0.249023 15.0656 1.44434 17.9531 3.61465 20.1188C5.78496 22.2844 8.66777 23.4844 11.7334 23.4844C14.799 23.4844 17.6865 22.2891 19.8521 20.1188C22.0178 17.9484 23.2178 15.0656 23.2178 12C23.2178 8.93437 22.0225 6.04688 19.8521 3.88125ZM22.1771 11.4844H17.724C17.6818 9.7125 17.4334 8.00625 16.9975 6.49219C17.8459 6.05625 18.6381 5.50781 19.3646 4.86094C21.0053 6.61406 22.0506 8.92969 22.1771 11.4844ZM12.249 12.5156H16.6975C16.66 14.1469 16.435 15.7078 16.0459 17.1047C14.8459 16.6219 13.5662 16.3406 12.249 16.2797V12.5156ZM18.624 4.14375C18.024 4.67344 17.3678 5.12344 16.674 5.49844C16.4959 5.00156 16.2943 4.53281 16.0693 4.09219C15.624 3.21094 15.1178 2.48906 14.56 1.93594C16.0834 2.3625 17.4662 3.12656 18.624 4.14375ZM12.249 1.70625C13.3225 1.94531 14.335 2.93437 15.1506 4.54688C15.3709 4.98281 15.5678 5.44687 15.7412 5.93906C14.6396 6.39375 13.4631 6.66094 12.249 6.72187V1.70625ZM16.0506 6.92813C16.435 8.31563 16.6553 9.86719 16.6928 11.4891H12.249V7.75781C13.5709 7.69688 14.8506 7.41094 16.0506 6.92813ZM11.2178 11.4844H6.76934C6.80684 9.8625 7.02715 8.31094 7.41152 6.92344C8.61152 7.41094 9.8959 7.69219 11.2131 7.74844V11.4844H11.2178ZM11.2225 1.70625V6.72187C10.0084 6.66094 8.82715 6.39375 7.73027 5.93906C7.90371 5.44687 8.10059 4.98281 8.3209 4.54688C9.13652 2.93437 10.149 1.94531 11.2225 1.70625ZM8.91152 1.93594C8.35371 2.48906 7.84746 3.21563 7.40215 4.09219C7.18184 4.53281 6.98027 5.00156 6.79746 5.49844C6.10371 5.12344 5.45215 4.67344 4.84746 4.14375C6.00527 3.12656 7.38809 2.3625 8.91152 1.93594ZM4.10684 4.86094C4.8334 5.50781 5.62559 6.05156 6.47402 6.49219C6.03809 8.01094 5.78496 9.7125 5.74746 11.4844H1.29434C1.4209 8.92969 2.46621 6.61406 4.10684 4.86094ZM1.29434 12.5156H5.74746C5.78965 14.3016 6.04277 16.0125 6.4834 17.5359C5.63965 17.9719 4.84746 18.5109 4.12559 19.1578C2.4709 17.4 1.4209 15.0797 1.29434 12.5156ZM4.86621 19.875C5.46621 19.35 6.11777 18.9 6.80684 18.5297C6.98496 19.0125 7.18184 19.4766 7.40215 19.9078C7.84746 20.7891 8.35371 21.5109 8.91152 22.0687C7.39746 21.6422 6.01934 20.8828 4.86621 19.875ZM11.2225 22.2938C10.149 22.0547 9.13652 21.0656 8.3209 19.4531C8.10527 19.0266 7.91309 18.5719 7.73965 18.0891C8.83652 17.6344 10.0131 17.3672 11.2225 17.3109V22.2938ZM7.42559 17.1047C7.03652 15.7078 6.81152 14.1469 6.77402 12.5156H11.2225V16.2797C9.90527 16.3359 8.62559 16.6172 7.42559 17.1047ZM12.2537 22.2938V17.3109C13.4631 17.3719 14.6396 17.6344 15.7365 18.0891C15.5631 18.5719 15.3709 19.0266 15.1553 19.4531C14.3396 21.0656 13.3271 22.0547 12.2537 22.2938ZM14.5646 22.0641C15.1225 21.5109 15.6287 20.7844 16.074 19.9031C16.2943 19.4719 16.4912 19.0078 16.6693 18.525C17.3584 18.8953 18.01 19.3453 18.61 19.8703C17.4568 20.8828 16.0787 21.6422 14.5646 22.0641ZM19.3553 19.1578C18.6334 18.5156 17.8412 17.9719 16.9975 17.5359C17.4381 16.0125 17.6912 14.2969 17.7334 12.5156H22.1865C22.0553 15.0797 21.0053 17.4 19.3553 19.1578Z" fill="white"/>
</svg>
